# xmcd
#
# Track frame offsets:
#	150
#	15437
#	32026
#	48435
#	64065
#	79745
#	97953
#	117181
#	126346
#	146974
#	165991
#	183904
#	193409
#	195193
#
# Disc length: 2619
#
# Revision: 2
# Processed by: cddbd v1.5.1PL0 Copyright (c) Steve Scherf et al.
# Submitted via: VisiTrax 2.9.5.180 - For more info visit www.synapsa.com
# Normalized: r1:DSETVAR1
#
DISCID=b80a390e
DTITLE=Various Artist - CDX  176 December 1997
DYEAR=1997
DGENRE=Country
TTITLE0=Jeff Carson - Cheatin' On Her Heart
TTITLE1=David Kersh - If I Never Stop Loving You
TTITLE2=Kinleys - Just Between You and Me
TTITLE3=Collin Raye - Little Red Rodeo
TTITLE4=Paul Brandt - What's Come Over You
TTITLE5=Zack Bicknell - She Don't Know
TTITLE6=Sawyer Brown - Hallelujah He Is Born
TTITLE7=Ricochet - Let It Snow
TTITLE8=Collin raye - The First Noel
TTITLE9=Robert Earl Keen - Merry Christmas From The Family
TTITLE10=Kacey Jones - Put The Seat Back Down
TTITLE11=Kacey Jones - Comedy Bit
TTITLE12=Blackhawk - PSA
TTITLE13=Blackhawk - PSA
EXTD=YEAR: 1997
EXTT0=
EXTT1=
EXTT2=
EXTT3=
EXTT4=
EXTT5=
EXTT6=
EXTT7=
EXTT8=
EXTT9=
EXTT10=
EXTT11=
EXTT12=
EXTT13=
PLAYORDER=
